<svg width="26" height="27" viewBox="0 0 26 27" fill="none" xmlns="http://www.w3.org/2000/svg">
<path d="M13.25 22.5C12.249 22.5 11.4375 21.6941 11.4375 20.7H15.0625C15.0625 21.6941 14.251 22.5 13.25 22.5ZM20.5 19.8H6V18L7.8125 17.1V12.15C7.8125 9.0342 9.10028 7.0137 11.4375 6.462V4.5H14.1562C13.5653 5.27754 13.247 6.22586 13.25 7.2C13.25 7.42624 13.2669 7.65217 13.3007 7.8759H13.25C12.1442 7.80478 11.0777 8.29589 10.418 9.18C9.85387 10.0661 9.57709 11.1027 9.625 12.15V18H16.875V12.15C16.875 11.9601 16.8687 11.7774 16.856 11.61C17.4554 11.733 18.0736 11.7351 18.6739 11.6163C18.6839 11.8062 18.6875 11.9871 18.6875 12.1563V17.1L20.5 18V19.8ZM17.7812 9.9C17.2337 9.90066 16.6988 9.73655 16.247 9.4293C15.1792 8.70442 14.7735 7.33284 15.2768 6.14961C15.7801 4.96638 17.0532 4.2991 18.3208 4.55403C19.5885 4.80896 20.4998 5.91552 20.5 7.2C20.5 8.69117 19.2828 9.9 17.7812 9.9Z" fill="white"/>
</svg>
