<svg width="13" height="13" viewBox="0 0 13 13" fill="none" xmlns="http://www.w3.org/2000/svg">
<circle cx="6.5" cy="6.5" r="6.5" fill="#CC5500" fill-opacity="0.15"/>
<path d="M9.74377 3.76918L9.23094 3.25635C9.06005 3.08545 8.8361 3 8.61216 3C8.38821 3 8.16427 3.08545 7.99351 3.25621L6.97509 4.27463L6.5 4.74973L3.1757 8.07391L3.00206 9.63551C2.98019 9.83211 3.13509 10 3.32745 10C3.33962 10 3.35193 9.99932 3.36423 9.99795L4.92473 9.82555L8.25026 6.5L8.72522 6.02504L9.74364 5.00662C10.0854 4.66482 10.0854 4.11084 9.74377 3.76918ZM4.62354 9.19869L3.6996 9.30068L3.80255 8.37523L6.96402 5.21375L7.38812 4.78965L8.21034 5.61187L7.78624 6.03598L4.62354 9.19869ZM9.27961 4.54246L8.67423 5.14785L7.85214 4.32562L8.45753 3.72023C8.51331 3.66445 8.57839 3.65611 8.61216 3.65611C8.64593 3.65611 8.71114 3.66445 8.76679 3.72023L9.27961 4.23307C9.36493 4.31852 9.36493 4.45729 9.27961 4.54246Z" fill="#CC5500"/>
</svg>
