<svg width="19" height="18" viewBox="0 0 19 18" fill="none" xmlns="http://www.w3.org/2000/svg">
<path d="M9.32131 15.7499C8.83756 15.3209 8.29081 14.8746 7.71256 14.3999H7.70506C5.66881 12.7349 3.36106 10.8509 2.34181 8.59337C2.00694 7.87466 1.82948 7.09271 1.8213 6.29987C1.81906 5.21198 2.25538 4.16911 3.03166 3.40694C3.80794 2.64478 4.85864 2.22766 5.94631 2.24987C6.83178 2.25127 7.69818 2.50718 8.44231 2.98712C8.76928 3.19934 9.06512 3.45606 9.32131 3.74987C9.57892 3.45721 9.87484 3.20065 10.2011 2.98712C10.9449 2.50708 11.8111 2.25116 12.6963 2.24987C13.784 2.22766 14.8347 2.64478 15.611 3.40694C16.3872 4.16911 16.8236 5.21198 16.8213 6.29987C16.8137 7.09398 16.6362 7.87726 16.3008 8.59712C15.2816 10.8546 12.9746 12.7379 10.9383 14.3999L10.9308 14.4059C10.3518 14.8776 9.80581 15.3239 9.32206 15.7559L9.32131 15.7499ZM5.94631 3.74987C5.24769 3.74112 4.57386 4.0085 4.07131 4.49387C3.5871 4.96949 3.31647 5.62115 3.32124 6.29987C3.3298 6.87774 3.46068 7.44726 3.70531 7.97087C4.18644 8.9449 4.83564 9.82641 5.62306 10.5749C6.36631 11.3249 7.22131 12.0509 7.96081 12.6614C8.16556 12.8301 8.37406 13.0004 8.58256 13.1706L8.71381 13.2779C8.91406 13.4414 9.12106 13.6109 9.32131 13.7774L9.33106 13.7684L9.33556 13.7646H9.34006L9.34681 13.7594H9.35056H9.35431L9.36781 13.7481L9.39856 13.7234L9.40381 13.7189L9.41206 13.7129H9.41656L9.42331 13.7069L9.92131 13.2981L10.0518 13.1909C10.2626 13.0191 10.4711 12.8489 10.6758 12.6801C11.4153 12.0696 12.2711 11.3444 13.0143 10.5906C13.8018 9.84254 14.4511 8.96125 14.9321 7.98737C15.1811 7.45922 15.3139 6.88375 15.3213 6.29987C15.3244 5.62325 15.0539 4.97409 14.5713 4.49987C14.0697 4.01231 13.3958 3.74273 12.6963 3.74987C11.8427 3.74261 11.0268 4.10039 10.4538 4.73312L9.32131 6.03812L8.18881 4.73312C7.61585 4.10039 6.79986 3.74261 5.94631 3.74987Z" fill="#36454F"/>
</svg>
