<svg width="27" height="27" viewBox="0 0 27 27" fill="none" xmlns="http://www.w3.org/2000/svg">
<path d="M13.5637 22.492C12.9052 21.9203 12.1611 21.3256 11.3741 20.6929H11.3639C8.59246 18.474 5.45152 15.9633 4.06428 12.9548C3.60852 11.9971 3.36699 10.955 3.35585 9.89839C3.3528 8.44861 3.94666 7.05881 5.0032 6.04311C6.05974 5.02741 7.48979 4.47153 8.97014 4.50112C10.1753 4.50299 11.3545 4.84403 12.3673 5.48363C12.8123 5.76645 13.215 6.10856 13.5637 6.50011C13.9143 6.1101 14.317 5.76819 14.761 5.48363C15.7734 4.8439 16.9523 4.50284 18.1572 4.50112C19.6375 4.47153 21.0676 5.02741 22.1241 6.04311C23.1806 7.05881 23.7745 8.44861 23.7715 9.89839C23.761 10.9567 23.5195 12.0005 23.063 12.9598C21.6758 15.9683 18.5359 18.478 15.7645 20.6929L15.7542 20.7009C14.9662 21.3296 14.2231 21.9243 13.5647 22.5L13.5637 22.492ZM8.97014 6.50011C8.0193 6.48846 7.10219 6.84478 6.4182 7.49161C5.75917 8.12545 5.39084 8.99389 5.39733 9.89839C5.40898 10.6685 5.58711 11.4275 5.92006 12.1253C6.5749 13.4233 7.45848 14.5981 8.53019 15.5955C9.54178 16.595 10.7055 17.5625 11.712 18.3761C11.9906 18.601 12.2744 18.8279 12.5582 19.0547L12.7368 19.1977C13.0094 19.4156 13.2911 19.6415 13.5637 19.8633L13.5769 19.8513L13.583 19.8463H13.5892L13.5984 19.8393H13.6035H13.6086L13.6269 19.8244L13.6688 19.7914L13.6759 19.7854L13.6872 19.7774H13.6933L13.7025 19.7694L14.3803 19.2247L14.5579 19.0817C14.8447 18.8529 15.1285 18.626 15.4072 18.4011C16.4137 17.5875 17.5784 16.621 18.59 15.6165C19.6618 14.6196 20.5454 13.4451 21.2001 12.1472C21.5391 11.4434 21.7197 10.6765 21.7299 9.89839C21.7341 8.99668 21.366 8.13158 20.7091 7.4996C20.0264 6.84985 19.1092 6.4906 18.1572 6.50011C16.9954 6.49044 15.8848 6.96724 15.105 7.81045L13.5637 9.54957L12.0223 7.81045C11.2425 6.96724 10.1319 6.49044 8.97014 6.50011Z" fill="white"/>
</svg>
