<svg width="13" height="13" viewBox="0 0 13 13" fill="none" xmlns="http://www.w3.org/2000/svg">
<path d="M6.28122 13C5.32829 12.2221 4.44501 11.3692 3.64061 10.4504C2.43348 9.07048 1 7.01546 1 5.05719C0.998931 3.01195 2.28579 1.16767 4.26008 0.384944C6.23436 -0.397778 8.50693 0.0353475 10.0173 1.48221C11.0105 2.42856 11.5669 3.71586 11.5625 5.05719C11.5625 7.01546 10.129 9.07048 8.92184 10.4504C8.11744 11.3692 7.23416 12.2221 6.28122 13ZM6.28122 2.89097C5.4726 2.89097 4.72539 3.30385 4.32108 3.97408C3.91676 4.64431 3.91676 5.47007 4.32108 6.1403C4.72539 6.81053 5.4726 7.22341 6.28122 7.22341C7.53126 7.22341 8.54461 6.25356 8.54461 5.05719C8.54461 3.86082 7.53126 2.89097 6.28122 2.89097Z" fill="white"/>
</svg>
