<svg width="24" height="24" viewBox="0 0 24 24" fill="none" xmlns="http://www.w3.org/2000/svg">
<path d="M20.125 4.85714H15.75V4.14286C15.75 2.95938 14.9105 2 13.875 2H10.125C9.08945 2 8.25 2.95938 8.25 4.14286V4.85714H3.875C2.83945 4.85714 2 5.81652 2 7V19.8571C2 21.0406 2.83945 22 3.875 22H20.125C21.1605 22 22 21.0406 22 19.8571V7C22 5.81652 21.1605 4.85714 20.125 4.85714ZM10.125 4.14286H13.875V4.85714H10.125V4.14286ZM4.10938 19.8571C4.04721 19.8571 3.9876 19.8289 3.94365 19.7787C3.89969 19.7285 3.875 19.6603 3.875 19.5893V7.26786C3.875 7.19682 3.89969 7.12869 3.94365 7.07845C3.9876 7.02822 4.04721 7 4.10938 7H19.8906C19.9528 7 20.0124 7.02822 20.0564 7.07845C20.1003 7.12869 20.125 7.19682 20.125 7.26786V19.5893C20.125 19.6603 20.1003 19.7285 20.0564 19.7787C20.0124 19.8289 19.9528 19.8571 19.8906 19.8571H4.10938ZM15.75 12.7143V14.1429C15.75 14.4387 15.5401 14.6786 15.2812 14.6786H13.0938V17.1786C13.0938 17.4744 12.8839 17.7143 12.625 17.7143H11.375C11.1161 17.7143 10.9062 17.4744 10.9062 17.1786V14.6786H8.71875C8.45988 14.6786 8.25 14.4387 8.25 14.1429V12.7143C8.25 12.4184 8.45988 12.1786 8.71875 12.1786H10.9062V9.67857C10.9062 9.38272 11.1161 9.14286 11.375 9.14286H12.625C12.8839 9.14286 13.0938 9.38272 13.0938 9.67857V12.1786H15.2812C15.5401 12.1786 15.75 12.4184 15.75 12.7143Z" fill="#B1B1B1"/>
</svg>
