<svg width="24" height="24" viewBox="0 0 24 24" fill="none" xmlns="http://www.w3.org/2000/svg">
<path d="M19.5 2H4.5C3.12109 2 2 3.12109 2 4.5V15.75C2 17.1289 3.12109 18.25 4.5 18.25H8.25V21.5312C8.25 21.8086 8.47656 22 8.71875 22C8.8125 22 8.91016 21.9727 8.99609 21.9062L13.875 18.25H19.5C20.8789 18.25 22 17.1289 22 15.75V4.5C22 3.12109 20.8789 2 19.5 2ZM20.125 15.75C20.125 16.0938 19.8438 16.375 19.5 16.375H13.25L12.75 16.75L10.125 18.7188V16.375H4.5C4.15625 16.375 3.875 16.0938 3.875 15.75V4.5C3.875 4.15625 4.15625 3.875 4.5 3.875H19.5C19.8438 3.875 20.125 4.15625 20.125 4.5V15.75ZM7 8.875C6.30859 8.875 5.75 9.43359 5.75 10.125C5.75 10.8164 6.30859 11.375 7 11.375C7.69141 11.375 8.25 10.8164 8.25 10.125C8.25 9.43359 7.69141 8.875 7 8.875ZM12 8.875C11.3086 8.875 10.75 9.43359 10.75 10.125C10.75 10.8164 11.3086 11.375 12 11.375C12.6914 11.375 13.25 10.8164 13.25 10.125C13.25 9.43359 12.6914 8.875 12 8.875ZM17 8.875C16.3086 8.875 15.75 9.43359 15.75 10.125C15.75 10.8164 16.3086 11.375 17 11.375C17.6914 11.375 18.25 10.8164 18.25 10.125C18.25 9.43359 17.6914 8.875 17 8.875Z" fill="#B1B1B1"/>
</svg>
