<svg width="40" height="40" viewBox="0 0 40 40" fill="none" xmlns="http://www.w3.org/2000/svg">
<circle opacity="0.09" cx="20" cy="20" r="20" fill="#36454F"/>
<path d="M17 10C14.38 10 12.25 12.13 12.25 14.75C12.25 17.32 14.26 19.4 16.88 19.49C16.96 19.48 17.04 19.48 17.1 19.49C17.12 19.49 17.13 19.49 17.15 19.49C17.16 19.49 17.16 19.49 17.17 19.49C19.73 19.4 21.74 17.32 21.75 14.75C21.75 12.13 19.62 10 17 10Z" fill="#36454F"/>
<path d="M22.08 22.1509C19.29 20.2909 14.74 20.2909 11.93 22.1509C10.66 23.0009 9.95996 24.1509 9.95996 25.3809C9.95996 26.6109 10.66 27.7509 11.92 28.5909C13.32 29.5309 15.16 30.0009 17 30.0009C18.84 30.0009 20.68 29.5309 22.08 28.5909C23.34 27.7409 24.04 26.6009 24.04 25.3609C24.03 24.1309 23.34 22.9909 22.08 22.1509Z" fill="#36454F"/>
<path d="M27.9901 15.3401C28.1501 17.2801 26.7701 18.9801 24.8601 19.2101C24.8501 19.2101 24.8501 19.2101 24.8401 19.2101H24.8101C24.7501 19.2101 24.6901 19.2101 24.6401 19.2301C23.6701 19.2801 22.7801 18.9701 22.1101 18.4001C23.1401 17.4801 23.7301 16.1001 23.6101 14.6001C23.5401 13.7901 23.2601 13.0501 22.8401 12.4201C23.2201 12.2301 23.6601 12.1101 24.1101 12.0701C26.0701 11.9001 27.8201 13.3601 27.9901 15.3401Z" fill="#36454F"/>
<path d="M29.99 24.5904C29.91 25.5604 29.29 26.4004 28.25 26.9704C27.25 27.5204 25.99 27.7804 24.74 27.7504C25.46 27.1004 25.88 26.2904 25.96 25.4304C26.06 24.1904 25.47 23.0004 24.29 22.0504C23.62 21.5204 22.84 21.1004 21.99 20.7904C24.2 20.1504 26.98 20.5804 28.69 21.9604C29.61 22.7004 30.08 23.6304 29.99 24.5904Z" fill="#36454F"/>
</svg>
