<svg width="40" height="40" viewBox="0 0 40 40" fill="none" xmlns="http://www.w3.org/2000/svg">
<circle opacity="0.09" cx="20" cy="20" r="20" fill="#36454F"/>
<path d="M19.0489 10.9271C19.3483 10.0057 20.6517 10.0057 20.9511 10.9271L22.4697 15.6008C22.6035 16.0128 22.9875 16.2918 23.4207 16.2918H28.335C29.3037 16.2918 29.7065 17.5314 28.9228 18.1008L24.947 20.9894C24.5966 21.244 24.4499 21.6954 24.5838 22.1074L26.1024 26.7812C26.4017 27.7025 25.3472 28.4686 24.5635 27.8992L20.5878 25.0106C20.2373 24.756 19.7627 24.756 19.4122 25.0106L15.4365 27.8992C14.6528 28.4686 13.5983 27.7025 13.8976 26.7812L15.4162 22.1074C15.5501 21.6954 15.4034 21.244 15.053 20.9894L11.0772 18.1008C10.2935 17.5314 10.6963 16.2918 11.665 16.2918H16.5793C17.0125 16.2918 17.3965 16.0128 17.5303 15.6008L19.0489 10.9271Z" fill="#36454F"/>
</svg>
