<svg width="40" height="40" viewBox="0 0 40 40" fill="none" xmlns="http://www.w3.org/2000/svg">
<circle opacity="0.09" cx="20" cy="20" r="20" fill="#36454F"/>
<path d="M24.5946 10H14.8649C12.1795 10 10 12.1708 10 14.8478V20.6691V21.6426C10 24.3196 12.1795 26.4904 14.8649 26.4904H16.3243C16.587 26.4904 16.9373 26.6656 17.1027 26.8798L18.5622 28.817C19.2043 29.6736 20.2551 29.6736 20.8973 28.817L22.3568 26.8798C22.5416 26.6364 22.8335 26.4904 23.1351 26.4904H24.5946C27.28 26.4904 29.4595 24.3196 29.4595 21.6426V14.8478C29.4595 12.1708 27.28 10 24.5946 10ZM15.8378 19.7346C15.293 19.7346 14.8649 19.2965 14.8649 18.7611C14.8649 18.2257 15.3027 17.7877 15.8378 17.7877C16.373 17.7877 16.8108 18.2257 16.8108 18.7611C16.8108 19.2965 16.3827 19.7346 15.8378 19.7346ZM19.7297 19.7346C19.1849 19.7346 18.7568 19.2965 18.7568 18.7611C18.7568 18.2257 19.1946 17.7877 19.7297 17.7877C20.2649 17.7877 20.7027 18.2257 20.7027 18.7611C20.7027 19.2965 20.2746 19.7346 19.7297 19.7346ZM23.6216 19.7346C23.0768 19.7346 22.6486 19.2965 22.6486 18.7611C22.6486 18.2257 23.0865 17.7877 23.6216 17.7877C24.1568 17.7877 24.5946 18.2257 24.5946 18.7611C24.5946 19.2965 24.1665 19.7346 23.6216 19.7346Z" fill="#36454F"/>
</svg>
